M48
; DRILL file {KiCad (5.1.6)-1} date 08/01/20 01:01:01
; FORMAT={-:-/ absolute / inch / decimal}
; #@! TF.CreationDate,2020-08-01T01:01:01+01:00
; #@! TF.GenerationSoftware,Kicad,Pcbnew,(5.1.6)-1
; #@! TF.FileFunction,Plated,1,2,PTH
FMAT,2
INCH
T1C0.0394
T2C0.0399
T3C0.0402
T4C0.0404
T5C0.0472
T6C0.0551
T7C0.0709
T8C0.2165
%
G90
G05
T1
X6.3017Y-11.0821
X6.4985Y-11.0821
X-3.64Y-11.795
X-3.4431Y-11.795
X-3.64Y-12.0529
X-3.4431Y-12.0529
X-3.16Y-12.0
X-2.9631Y-12.0
X-3.495Y-15.3979
X-3.2981Y-15.3979
X-3.11Y-14.8
X-2.9131Y-14.8
X-2.965Y-15.29
X-2.7681Y-15.29
X-6.4505Y-11.3982
X-6.2537Y-11.3982
X5.895Y-11.34
X6.0919Y-11.34
X6.2513Y-11.34
X6.4481Y-11.34
X-5.0943Y-13.6025
X-4.8975Y-13.6025
X-4.2809Y-12.8273
X-4.0841Y-12.8273
X-3.68Y-14.83
X-3.4831Y-14.83
X-4.0467Y-12.5686
X-3.8498Y-12.5686
X-5.5168Y-11.5184
X-5.3199Y-11.5184
T2
X5.9838Y-10.6949
X-4.8394Y-10.892
X-5.4256Y-11.4086
X-7.0197Y-13.4747
X4.9361Y-11.8067
X5.3692Y-11.1922
X-6.0119Y-11.4086
X-6.7622Y-13.1596
X-8.4413Y-15.1023
X-4.2532Y-10.892
X-5.4256Y-10.892
X-8.6145Y-11.4747
X-9.0759Y-12.4692
X-5.3859Y-12.4417
X-5.9721Y-12.4417
X-7.2689Y-15.1216
X-6.5583Y-11.9251
X-10.0612Y-10.84
X-6.4335Y-13.4747
X-5.9264Y-13.6762
X-6.5583Y-12.4417
X-5.3859Y-11.9251
X-7.0988Y-13.6762
X-4.8394Y-11.4086
X5.3976Y-10.6756
X-8.695Y-13.7401
X-5.9721Y-11.9251
X-6.176Y-13.1596
X-6.4335Y-12.9582
X6.0688Y-10.1784
X-7.8551Y-15.1216
X-6.5126Y-13.6762
X-6.0119Y-10.892
X-7.0197Y-12.9582
T3
X-4.7213Y-10.892
X-4.6032Y-10.892
X-5.3075Y-11.4086
X-5.1894Y-11.4086
X-6.9016Y-13.4747
X-6.7835Y-13.4747
X5.0543Y-11.8067
X5.1724Y-11.8067
X5.4873Y-11.1922
X5.6054Y-11.1922
X-5.8937Y-11.4086
X-5.7756Y-11.4086
X-6.6441Y-13.1596
X-6.526Y-13.1596
X-8.3232Y-15.1023
X-8.2051Y-15.1023
X-4.1351Y-10.892
X-4.017Y-10.892
X-5.3075Y-10.892
X-5.1894Y-10.892
X-8.4964Y-11.4747
X-8.3783Y-11.4747
X-8.9578Y-12.4692
X-8.8397Y-12.4692
X-5.2678Y-12.4417
X-5.1496Y-12.4417
X-5.854Y-12.4417
X-5.7359Y-12.4417
X-7.1507Y-15.1216
X-7.0326Y-15.1216
X-6.4402Y-11.9251
X-6.3221Y-11.9251
X-9.9431Y-10.84
X-9.825Y-10.84
X-6.3154Y-13.4747
X-6.1973Y-13.4747
X-5.8083Y-13.6762
X-5.6902Y-13.6762
X-6.4402Y-12.4417
X-6.3221Y-12.4417
X-5.2678Y-11.9251
X-5.1496Y-11.9251
X-6.9807Y-13.6762
X-6.8626Y-13.6762
X-4.7213Y-11.4086
X-4.6032Y-11.4086
X5.5157Y-10.6756
X5.6338Y-10.6756
X-8.5769Y-13.7401
X-8.4588Y-13.7401
X-5.854Y-11.9251
X-5.7359Y-11.9251
X-6.0579Y-13.1596
X-5.9398Y-13.1596
X-6.3154Y-12.9582
X-6.1973Y-12.9582
X6.1869Y-10.1784
X6.305Y-10.1784
X-7.737Y-15.1216
X-7.6189Y-15.1216
X-6.3945Y-13.6762
X-6.2764Y-13.6762
X-5.8937Y-10.892
X-5.7756Y-10.892
X-6.9016Y-12.9582
X-6.7835Y-12.9582
X6.1019Y-10.6949
X6.22Y-10.6949
T4
X-8.2274Y-11.3087
X-8.6888Y-12.3032
X-4.9988Y-12.2757
X-5.585Y-12.2757
X-6.8817Y-14.9556
X-6.1712Y-11.7591
X-9.6741Y-10.674
X-6.0464Y-13.3087
X-5.5393Y-13.5102
X-6.1712Y-12.2757
X-4.9988Y-11.7591
X-6.7117Y-13.5102
X-4.4523Y-11.2426
X5.7847Y-10.5096
X-8.3079Y-13.5741
X-5.585Y-11.7591
X-5.7889Y-12.9936
X-6.0464Y-12.7922
X6.4559Y-10.0124
X-7.468Y-14.9556
X-6.1255Y-13.5102
X-5.6247Y-10.726
X-6.6326Y-12.7922
X6.3709Y-10.5289
X-4.4523Y-10.726
X-5.0385Y-11.2426
X-6.6326Y-13.3087
X5.3233Y-11.6407
X5.7563Y-11.0262
X-5.6247Y-11.2426
X-6.3751Y-12.9936
X-8.0542Y-14.9363
X-3.8661Y-10.726
X-5.0385Y-10.726
T5
X-3.7976Y-11.9077
X-3.5976Y-11.9077
X-5.7009Y-15.1313
X-5.5009Y-15.1313
X-4.4042Y-11.7958
X-4.2042Y-11.7958
X-10.5843Y-11.5727
X-10.3843Y-11.5727
X4.3958Y-12.1762
X4.5958Y-12.1762
X-5.4518Y-12.8289
X-5.2518Y-12.8289
X-10.5843Y-11.8306
X-10.3843Y-11.8306
X-4.6384Y-12.8273
X-4.4384Y-12.8273
X-3.9397Y-11.6498
X-3.7397Y-11.6498
X-3.9975Y-12.3107
X-3.7975Y-12.3107
X-3.9975Y-11.795
X-3.7975Y-11.795
X4.8025Y-12.1939
X5.0025Y-12.1939
X3.9891Y-12.1762
X4.1891Y-12.1762
X-4.8109Y-12.5694
X-4.6109Y-12.5694
X-3.8577Y-11.2793
X-3.6577Y-11.2793
X-5.8585Y-13.0867
X-5.6585Y-13.0867
X-5.4518Y-13.3446
X-5.2518Y-13.3446
X-6.4013Y-11.1404
X-6.2013Y-11.1404
X-5.4518Y-13.6025
X-5.2518Y-13.6025
X-10.5843Y-12.0884
X-10.3843Y-12.0884
X-6.1076Y-15.1313
X-5.9076Y-15.1313
X-3.9397Y-11.3919
X-3.7397Y-11.3919
X-5.3514Y-13.6248
X-5.1514Y-13.6248
X-5.0451Y-13.0867
X-4.8451Y-13.0867
X-3.533Y-11.3919
X-3.333Y-11.3919
X5.5111Y-11.8372
X5.7111Y-11.8372
X5.9442Y-11.0821
X6.1442Y-11.0821
X-4.4042Y-12.5694
X-4.2042Y-12.5694
X-4.8109Y-12.3115
X-4.6109Y-12.3115
X-4.2644Y-11.2793
X-4.0644Y-11.2793
X-4.8109Y-11.7958
X-4.6109Y-11.7958
X-5.4518Y-13.0867
X-5.2518Y-13.0867
X-5.8585Y-12.8289
X-5.6585Y-12.8289
X-4.4042Y-12.3115
X-4.2042Y-12.3115
X-8.6257Y-11.8619
X-8.4257Y-11.8619
X-4.6384Y-13.0852
X-4.4384Y-13.0852
X5.5111Y-11.5794
X5.7111Y-11.5794
X-8.6726Y-11.8684
X-8.4726Y-11.8684
X-4.2644Y-11.5371
X-4.0644Y-11.5371
X-5.8585Y-13.6025
X-5.6585Y-13.6025
X-5.8585Y-13.3446
X-5.6585Y-13.3446
X-4.4042Y-12.0537
X-4.2042Y-12.0537
X-3.7976Y-12.1656
X-3.5976Y-12.1656
X-5.0451Y-13.3446
X-4.8451Y-13.3446
X3.5824Y-12.1762
X3.7824Y-12.1762
X-5.3514Y-13.3669
X-5.1514Y-13.3669
X-5.0451Y-12.8289
X-4.8451Y-12.8289
X-4.8109Y-12.0537
X-4.6109Y-12.0537
X-3.6782Y-11.0206
X-3.4782Y-11.0206
X-3.8577Y-11.5371
X-3.6577Y-11.5371
X-3.533Y-11.6498
X-3.333Y-11.6498
X-3.9975Y-12.0529
X-3.7975Y-12.0529
X5.2092Y-12.1939
X5.4092Y-12.1939
X-3.6782Y-10.7627
X-3.4782Y-10.7627
X-8.2659Y-11.8684
X-8.0659Y-11.8684
T6
X-3.31Y-13.565
X-3.31Y-13.728
X-3.31Y-13.891
X-3.31Y-14.054
X-3.147Y-13.565
X-3.147Y-13.728
X-3.147Y-13.891
X-3.147Y-14.054
X0.8Y-13.7
X0.8Y-13.863
X0.8Y-14.026
X0.8Y-14.189
X0.963Y-13.7
X0.963Y-13.863
X0.963Y-14.026
X0.963Y-14.189
T7
X-9.6613Y-12.9101
X-9.6146Y-13.1754
X-9.5267Y-12.6769
X-9.4083Y-13.3485
X-9.2736Y-12.5848
X-9.1389Y-13.3485
X-9.0205Y-12.6769
X-8.9326Y-13.1754
X-8.8859Y-12.9101
X-9.2483Y-10.5898
X-9.2015Y-10.855
X-9.1136Y-10.3566
X-8.9952Y-11.0281
X-8.8606Y-10.2645
X-8.7259Y-11.0281
X-8.6075Y-10.3566
X-8.5196Y-10.855
X-8.4729Y-10.5898
X-8.5286Y-11.7775
X-8.4819Y-12.0427
X-8.394Y-11.5442
X-8.2756Y-12.2158
X-8.1409Y-11.4521
X-8.0063Y-12.2158
X-7.8879Y-11.5442
X-7.8Y-12.0427
X-7.7532Y-11.7775
X3.6311Y-10.4261
X3.6779Y-10.6913
X3.7658Y-10.1929
X3.8842Y-10.8645
X4.0188Y-10.1008
X4.1535Y-10.8645
X4.2719Y-10.1929
X4.3598Y-10.6913
X4.4066Y-10.4261
X-10.381Y-10.5898
X-10.3342Y-10.855
X-10.2463Y-10.3566
X-10.1279Y-11.0281
X-9.9932Y-10.2645
X-9.8586Y-11.0281
X-9.7402Y-10.3566
X-9.6523Y-10.855
X-9.6055Y-10.5898
X-8.5286Y-12.9101
X-8.4819Y-13.1754
X-8.394Y-12.6769
X-8.2756Y-13.3485
X-8.1409Y-12.5848
X-8.0063Y-13.3485
X-7.8879Y-12.6769
X-7.8Y-13.1754
X-7.7532Y-12.9101
X-10.381Y-11.7225
X-10.3342Y-11.9877
X-10.2463Y-11.4892
X-10.1279Y-12.1608
X-9.9932Y-11.3971
X-9.8586Y-12.1608
X-9.7402Y-11.4892
X-9.6523Y-11.9877
X-9.6055Y-11.7225
X2.4984Y-11.5588
X2.5452Y-11.824
X2.6331Y-11.3256
X2.7515Y-11.9971
X2.8862Y-11.2335
X3.0208Y-11.9971
X3.1392Y-11.3256
X3.2271Y-11.824
X3.2739Y-11.5588
X-7.7597Y-10.9046
X-7.713Y-11.1699
X-7.6251Y-10.6714
X-7.5067Y-11.343
X-7.372Y-10.5793
X-7.2373Y-11.343
X-7.1189Y-10.6714
X-7.031Y-11.1699
X-6.9843Y-10.9046
X5.0125Y-11.0465
X5.0125Y-11.2315
X5.0125Y-11.4166
X-8.3947Y-10.1096
X-8.348Y-10.3749
X-8.2601Y-9.8764
X-8.1417Y-10.548
X-8.007Y-9.7843
X-7.8723Y-10.548
X-7.7539Y-9.8764
X-7.666Y-10.3749
X-7.6193Y-10.1096
X-9.6613Y-11.7775
X-9.6146Y-12.0427
X-9.5267Y-11.5442
X-9.4083Y-12.2158
X-9.2736Y-11.4521
X-9.1389Y-12.2158
X-9.0205Y-11.5442
X-8.9326Y-12.0427
X-8.8859Y-11.7775
X2.4984Y-10.4261
X2.5452Y-10.6913
X2.6331Y-10.1929
X2.7515Y-10.8645
X2.8862Y-10.1008
X3.0208Y-10.8645
X3.1392Y-10.1929
X3.2271Y-10.6913
X3.2739Y-10.4261
T8
X-9.9922Y-10.6502
X-8.1399Y-12.9705
X-9.9922Y-11.7828
X2.8872Y-11.6192
X-7.371Y-10.965
X-8.006Y-10.17
X-9.2726Y-11.8378
X2.8872Y-10.4865
X-9.2726Y-12.9705
X-8.8596Y-10.6502
X-8.1399Y-11.8378
X4.0198Y-10.4865
T1
G00X4.9218Y-10.0918
M15
G01X4.9218Y-10.1705
M16
G05
G00X5.0005Y-10.3162
M15
G01X5.0793Y-10.3162
M16
G05
G00X5.158Y-10.0918
M15
G01X5.158Y-10.1705
M16
G05
G00X4.4604Y-11.7217
M15
G01X4.4604Y-11.8004
M16
G05
G00X4.5391Y-11.9461
M15
G01X4.6178Y-11.9461
M16
G05
G00X4.6966Y-11.7217
M15
G01X4.6966Y-11.8004
M16
G05
G00X-10.9636Y-15.5168
M15
G01X-10.9636Y-15.5955
M16
G05
G00X-10.8848Y-15.7412
M15
G01X-10.8061Y-15.7412
M16
G05
G00X-10.7274Y-15.5168
M15
G01X-10.7274Y-15.5955
M16
G05
G00X3.7891Y-11.7217
M15
G01X3.7891Y-11.8004
M16
G05
G00X3.8678Y-11.9461
M15
G01X3.9466Y-11.9461
M16
G05
G00X4.0253Y-11.7217
M15
G01X4.0253Y-11.8004
M16
G05
G00X-10.9636Y-14.5223
M15
G01X-10.9636Y-14.601
M16
G05
G00X-10.8848Y-14.7467
M15
G01X-10.8061Y-14.7467
M16
G05
G00X-10.7274Y-14.5223
M15
G01X-10.7274Y-14.601
M16
G05
G00X-9.6211Y-15.0195
M15
G01X-9.6211Y-15.0983
M16
G05
G00X-9.5423Y-15.2439
M15
G01X-9.4636Y-15.2439
M16
G05
G00X-9.3848Y-15.0195
M15
G01X-9.3848Y-15.0983
M16
G05
G00X-8.9498Y-14.5223
M15
G01X-8.9498Y-14.601
M16
G05
G00X-8.8711Y-14.7467
M15
G01X-8.7923Y-14.7467
M16
G05
G00X-8.7136Y-14.5223
M15
G01X-8.7136Y-14.601
M16
G05
G00X-9.0903Y-11.8854
M15
G01X-9.0903Y-11.9641
M16
G05
G00X-9.0116Y-12.1098
M15
G01X-8.9328Y-12.1098
M16
G05
G00X-8.8541Y-11.8854
M15
G01X-8.8541Y-11.9641
M16
G05
G00X-10.2923Y-15.5168
M15
G01X-10.2923Y-15.5955
M16
G05
G00X-10.2136Y-15.7412
M15
G01X-10.1348Y-15.7412
M16
G05
G00X-10.0561Y-15.5168
M15
G01X-10.0561Y-15.5955
M16
G05
G00X3.7891Y-11.2244
M15
G01X3.7891Y-11.3032
M16
G05
G00X3.8678Y-11.4489
M15
G01X3.9466Y-11.4489
M16
G05
G00X4.0253Y-11.2244
M15
G01X4.0253Y-11.3032
M16
G05
G00X-9.6211Y-14.5223
M15
G01X-9.6211Y-14.601
M16
G05
G00X-9.5423Y-14.7467
M15
G01X-9.4636Y-14.7467
M16
G05
G00X-9.3848Y-14.5223
M15
G01X-9.3848Y-14.601
M16
G05
G00X-10.2923Y-15.0195
M15
G01X-10.2923Y-15.0983
M16
G05
G00X-10.2136Y-15.2439
M15
G01X-10.1348Y-15.2439
M16
G05
G00X-10.0561Y-15.0195
M15
G01X-10.0561Y-15.0983
M16
G05
G00X4.4604Y-11.2244
M15
G01X4.4604Y-11.3032
M16
G05
G00X4.5391Y-11.4489
M15
G01X4.6178Y-11.4489
M16
G05
G00X4.6966Y-11.2244
M15
G01X4.6966Y-11.3032
M16
G05
G00X-10.9636Y-15.0195
M15
G01X-10.9636Y-15.0983
M16
G05
G00X-10.8848Y-15.2439
M15
G01X-10.8061Y-15.2439
M16
G05
G00X-10.7274Y-15.0195
M15
G01X-10.7274Y-15.0983
M16
G05
G00X4.9218Y-10.589
M15
G01X4.9218Y-10.6678
M16
G05
G00X5.0005Y-10.8134
M15
G01X5.0793Y-10.8134
M16
G05
G00X5.158Y-10.589
M15
G01X5.158Y-10.6678
M16
G05
G00X5.593Y-10.0918
M15
G01X5.593Y-10.1705
M16
G05
G00X5.6718Y-10.3162
M15
G01X5.7505Y-10.3162
M16
G05
G00X5.8293Y-10.0918
M15
G01X5.8293Y-10.1705
M16
G05
G00X-10.0362Y-13.8156
M15
G01X-10.0362Y-13.8944
M16
G05
G00X-9.9575Y-14.04
M15
G01X-9.8787Y-14.04
M16
G05
G00X-9.8Y-13.8156
M15
G01X-9.8Y-13.8944
M16
G05
G00X-10.2923Y-14.5223
M15
G01X-10.2923Y-14.601
M16
G05
G00X-10.2136Y-14.7467
M15
G01X-10.1348Y-14.7467
M16
G05
G00X-10.0561Y-14.5223
M15
G01X-10.0561Y-14.601
M16
G05
G00X-9.6211Y-15.5168
M15
G01X-9.6211Y-15.5955
M16
G05
G00X-9.5423Y-15.7412
M15
G01X-9.4636Y-15.7412
M16
G05
G00X-9.3848Y-15.5168
M15
G01X-9.3848Y-15.5955
M16
G05
T0
M30
