%TF.GenerationSoftware,KiCad,Pcbnew,(5.1.6)-1*%
%TF.CreationDate,2020-08-01T01:01:07+01:00*%
%TF.ProjectId,SSEMD,5353454d-442e-46b6-9963-61645f706362,rev?*%
%TF.SameCoordinates,Original*%
%TF.FileFunction,Soldermask,Bot*%
%TF.FilePolarity,Negative*%
%FSLAX46Y46*%
G04 Gerber Fmt 4.6, Leading zero omitted, Abs format (unit mm)*
G04 Created by KiCad (PCBNEW (5.1.6)-1) date 2020-08-01 01:01:07*
%MOMM*%
%LPD*%
G01*
G04 APERTURE LIST*
%ADD10C,3.960000*%
%ADD11C,2.740000*%
%ADD12C,3.910000*%
%ADD13C,6.100000*%
%ADD14R,3.910000X3.910000*%
%ADD15C,2.800000*%
%ADD16O,2.500000X2.500000*%
%ADD17C,2.500000*%
%ADD18R,3.600000X3.600000*%
%ADD19C,2.100000*%
%ADD20C,2.130000*%
G04 APERTURE END LIST*
D10*
%TO.C,J-CTRLGATE-20*%
X31800000Y-354190000D03*
D11*
X24460000Y-360400000D03*
X24460000Y-356260000D03*
X24460000Y-352120000D03*
X24460000Y-347980000D03*
X20320000Y-360400000D03*
X20320000Y-356260000D03*
X20320000Y-352120000D03*
G36*
G01*
X18950000Y-349090531D02*
X18950000Y-346869469D01*
G75*
G02*
X19209469Y-346610000I259469J0D01*
G01*
X21430531Y-346610000D01*
G75*
G02*
X21690000Y-346869469I0J-259469D01*
G01*
X21690000Y-349090531D01*
G75*
G02*
X21430531Y-349350000I-259469J0D01*
G01*
X19209469Y-349350000D01*
G75*
G02*
X18950000Y-349090531I0J259469D01*
G01*
G37*
%TD*%
D10*
%TO.C,J-ADDER1-20*%
X-72594000Y-350761000D03*
D11*
X-79934000Y-356971000D03*
X-79934000Y-352831000D03*
X-79934000Y-348691000D03*
X-79934000Y-344551000D03*
X-84074000Y-356971000D03*
X-84074000Y-352831000D03*
X-84074000Y-348691000D03*
G36*
G01*
X-85444000Y-345661531D02*
X-85444000Y-343440469D01*
G75*
G02*
X-85184531Y-343181000I259469J0D01*
G01*
X-82963469Y-343181000D01*
G75*
G02*
X-82704000Y-343440469I0J-259469D01*
G01*
X-82704000Y-345661531D01*
G75*
G02*
X-82963469Y-345921000I-259469J0D01*
G01*
X-85184531Y-345921000D01*
G75*
G02*
X-85444000Y-345661531I0J259469D01*
G01*
G37*
%TD*%
D12*
%TO.C,V-CTRLGATE-2*%
X81968770Y-271560116D03*
X83156594Y-264823634D03*
X79736392Y-258899672D03*
X73308516Y-256560116D03*
X66880640Y-258899672D03*
X63460438Y-264823634D03*
X64648262Y-271560116D03*
X76728717Y-275957042D03*
D13*
X73333916Y-266356916D03*
D14*
X69888315Y-275957042D03*
%TD*%
D12*
%TO.C,V-CTRLGATE-1*%
X81968770Y-300330116D03*
X83156594Y-293593634D03*
X79736392Y-287669672D03*
X73308516Y-285330116D03*
X66880640Y-287669672D03*
X63460438Y-293593634D03*
X64648262Y-300330116D03*
X76728717Y-304727042D03*
D13*
X73333916Y-295126916D03*
D14*
X69888315Y-304727042D03*
%TD*%
D12*
%TO.C,V1*%
X110738770Y-271560116D03*
X111926594Y-264823634D03*
X108506392Y-258899672D03*
X102078516Y-256560116D03*
X95650640Y-258899672D03*
X92230438Y-264823634D03*
X93418262Y-271560116D03*
X105498717Y-275957042D03*
D13*
X102103916Y-266356916D03*
D14*
X98658315Y-275957042D03*
%TD*%
D15*
%TO.C,SW-CTRLGATE-1*%
X127318000Y-280581000D03*
X127318000Y-285281000D03*
X127318000Y-289981000D03*
%TD*%
D16*
%TO.C,R-CTRLGATE-8*%
X106403000Y-309276000D03*
D17*
X101323000Y-309276000D03*
%TD*%
D16*
%TO.C,R-CTRLGATE-7*%
X116733000Y-309276000D03*
D17*
X111653000Y-309276000D03*
%TD*%
D16*
%TO.C,R-CTRLGATE-6*%
X127063000Y-309726000D03*
D17*
X121983000Y-309726000D03*
%TD*%
D16*
%TO.C,R-CTRLGATE-5*%
X96073000Y-309276000D03*
D17*
X90993000Y-309276000D03*
%TD*%
D16*
%TO.C,R-CTRLGATE-4*%
X145063000Y-300666000D03*
D17*
X139983000Y-300666000D03*
%TD*%
D16*
%TO.C,R-CTRLGATE-3*%
X137393000Y-309726000D03*
D17*
X132313000Y-309726000D03*
%TD*%
D16*
%TO.C,R-CTRLGATE-2*%
X145063000Y-294116000D03*
D17*
X139983000Y-294116000D03*
%TD*%
D16*
%TO.C,R-CTRLGATE-1*%
X156063000Y-281486000D03*
D17*
X150983000Y-281486000D03*
%TD*%
%TO.C,J-CTRLGATE-7*%
G36*
G01*
X114493000Y-304331000D02*
X114493000Y-302531000D01*
G75*
G02*
X115393000Y-301631000I900000J0D01*
G01*
X117193000Y-301631000D01*
G75*
G02*
X118093000Y-302531000I0J-900000D01*
G01*
X118093000Y-304331000D01*
G75*
G02*
X117193000Y-305231000I-900000J0D01*
G01*
X115393000Y-305231000D01*
G75*
G02*
X114493000Y-304331000I0J900000D01*
G01*
G37*
G36*
G01*
X111743000Y-299756000D02*
X111743000Y-297706000D01*
G75*
G02*
X112518000Y-296931000I775000J0D01*
G01*
X114068000Y-296931000D01*
G75*
G02*
X114843000Y-297706000I0J-775000D01*
G01*
X114843000Y-299756000D01*
G75*
G02*
X114068000Y-300531000I-775000J0D01*
G01*
X112518000Y-300531000D01*
G75*
G02*
X111743000Y-299756000I0J775000D01*
G01*
G37*
D18*
X119293000Y-298731000D03*
%TD*%
%TO.C,J-CTRLGATE-6*%
G36*
G01*
X114493000Y-291701000D02*
X114493000Y-289901000D01*
G75*
G02*
X115393000Y-289001000I900000J0D01*
G01*
X117193000Y-289001000D01*
G75*
G02*
X118093000Y-289901000I0J-900000D01*
G01*
X118093000Y-291701000D01*
G75*
G02*
X117193000Y-292601000I-900000J0D01*
G01*
X115393000Y-292601000D01*
G75*
G02*
X114493000Y-291701000I0J900000D01*
G01*
G37*
G36*
G01*
X111743000Y-287126000D02*
X111743000Y-285076000D01*
G75*
G02*
X112518000Y-284301000I775000J0D01*
G01*
X114068000Y-284301000D01*
G75*
G02*
X114843000Y-285076000I0J-775000D01*
G01*
X114843000Y-287126000D01*
G75*
G02*
X114068000Y-287901000I-775000J0D01*
G01*
X112518000Y-287901000D01*
G75*
G02*
X111743000Y-287126000I0J775000D01*
G01*
G37*
X119293000Y-286101000D03*
%TD*%
%TO.C,J-CTRLGATE-5*%
G36*
G01*
X97443000Y-304331000D02*
X97443000Y-302531000D01*
G75*
G02*
X98343000Y-301631000I900000J0D01*
G01*
X100143000Y-301631000D01*
G75*
G02*
X101043000Y-302531000I0J-900000D01*
G01*
X101043000Y-304331000D01*
G75*
G02*
X100143000Y-305231000I-900000J0D01*
G01*
X98343000Y-305231000D01*
G75*
G02*
X97443000Y-304331000I0J900000D01*
G01*
G37*
G36*
G01*
X94693000Y-299756000D02*
X94693000Y-297706000D01*
G75*
G02*
X95468000Y-296931000I775000J0D01*
G01*
X97018000Y-296931000D01*
G75*
G02*
X97793000Y-297706000I0J-775000D01*
G01*
X97793000Y-299756000D01*
G75*
G02*
X97018000Y-300531000I-775000J0D01*
G01*
X95468000Y-300531000D01*
G75*
G02*
X94693000Y-299756000I0J775000D01*
G01*
G37*
X102243000Y-298731000D03*
%TD*%
%TO.C,J-CTRLGATE-4*%
G36*
G01*
X126213000Y-262931000D02*
X126213000Y-261131000D01*
G75*
G02*
X127113000Y-260231000I900000J0D01*
G01*
X128913000Y-260231000D01*
G75*
G02*
X129813000Y-261131000I0J-900000D01*
G01*
X129813000Y-262931000D01*
G75*
G02*
X128913000Y-263831000I-900000J0D01*
G01*
X127113000Y-263831000D01*
G75*
G02*
X126213000Y-262931000I0J900000D01*
G01*
G37*
G36*
G01*
X123463000Y-258356000D02*
X123463000Y-256306000D01*
G75*
G02*
X124238000Y-255531000I775000J0D01*
G01*
X125788000Y-255531000D01*
G75*
G02*
X126563000Y-256306000I0J-775000D01*
G01*
X126563000Y-258356000D01*
G75*
G02*
X125788000Y-259131000I-775000J0D01*
G01*
X124238000Y-259131000D01*
G75*
G02*
X123463000Y-258356000I0J775000D01*
G01*
G37*
X131013000Y-257331000D03*
%TD*%
%TO.C,J-CTRLGATE-3*%
G36*
G01*
X126213000Y-275561000D02*
X126213000Y-273761000D01*
G75*
G02*
X127113000Y-272861000I900000J0D01*
G01*
X128913000Y-272861000D01*
G75*
G02*
X129813000Y-273761000I0J-900000D01*
G01*
X129813000Y-275561000D01*
G75*
G02*
X128913000Y-276461000I-900000J0D01*
G01*
X127113000Y-276461000D01*
G75*
G02*
X126213000Y-275561000I0J900000D01*
G01*
G37*
G36*
G01*
X123463000Y-270986000D02*
X123463000Y-268936000D01*
G75*
G02*
X124238000Y-268161000I775000J0D01*
G01*
X125788000Y-268161000D01*
G75*
G02*
X126563000Y-268936000I0J-775000D01*
G01*
X126563000Y-270986000D01*
G75*
G02*
X125788000Y-271761000I-775000J0D01*
G01*
X124238000Y-271761000D01*
G75*
G02*
X123463000Y-270986000I0J775000D01*
G01*
G37*
X131013000Y-269961000D03*
%TD*%
%TO.C,J-CTRLGATE-2*%
G36*
G01*
X97443000Y-291701000D02*
X97443000Y-289901000D01*
G75*
G02*
X98343000Y-289001000I900000J0D01*
G01*
X100143000Y-289001000D01*
G75*
G02*
X101043000Y-289901000I0J-900000D01*
G01*
X101043000Y-291701000D01*
G75*
G02*
X100143000Y-292601000I-900000J0D01*
G01*
X98343000Y-292601000D01*
G75*
G02*
X97443000Y-291701000I0J900000D01*
G01*
G37*
G36*
G01*
X94693000Y-287126000D02*
X94693000Y-285076000D01*
G75*
G02*
X95468000Y-284301000I775000J0D01*
G01*
X97018000Y-284301000D01*
G75*
G02*
X97793000Y-285076000I0J-775000D01*
G01*
X97793000Y-287126000D01*
G75*
G02*
X97018000Y-287901000I-775000J0D01*
G01*
X95468000Y-287901000D01*
G75*
G02*
X94693000Y-287126000I0J775000D01*
G01*
G37*
X102243000Y-286101000D03*
%TD*%
%TO.C,J-CTRLGATE-1*%
G36*
G01*
X143263000Y-262931000D02*
X143263000Y-261131000D01*
G75*
G02*
X144163000Y-260231000I900000J0D01*
G01*
X145963000Y-260231000D01*
G75*
G02*
X146863000Y-261131000I0J-900000D01*
G01*
X146863000Y-262931000D01*
G75*
G02*
X145963000Y-263831000I-900000J0D01*
G01*
X144163000Y-263831000D01*
G75*
G02*
X143263000Y-262931000I0J900000D01*
G01*
G37*
G36*
G01*
X140513000Y-258356000D02*
X140513000Y-256306000D01*
G75*
G02*
X141288000Y-255531000I775000J0D01*
G01*
X142838000Y-255531000D01*
G75*
G02*
X143613000Y-256306000I0J-775000D01*
G01*
X143613000Y-258356000D01*
G75*
G02*
X142838000Y-259131000I-775000J0D01*
G01*
X141288000Y-259131000D01*
G75*
G02*
X140513000Y-258356000I0J775000D01*
G01*
G37*
X148063000Y-257331000D03*
%TD*%
%TO.C,J-ADDER1-12*%
G36*
G01*
X-243175000Y-400726000D02*
X-243175000Y-398926000D01*
G75*
G02*
X-242275000Y-398026000I900000J0D01*
G01*
X-240475000Y-398026000D01*
G75*
G02*
X-239575000Y-398926000I0J-900000D01*
G01*
X-239575000Y-400726000D01*
G75*
G02*
X-240475000Y-401626000I-900000J0D01*
G01*
X-242275000Y-401626000D01*
G75*
G02*
X-243175000Y-400726000I0J900000D01*
G01*
G37*
G36*
G01*
X-245925000Y-396151000D02*
X-245925000Y-394101000D01*
G75*
G02*
X-245150000Y-393326000I775000J0D01*
G01*
X-243600000Y-393326000D01*
G75*
G02*
X-242825000Y-394101000I0J-775000D01*
G01*
X-242825000Y-396151000D01*
G75*
G02*
X-243600000Y-396926000I-775000J0D01*
G01*
X-245150000Y-396926000D01*
G75*
G02*
X-245925000Y-396151000I0J775000D01*
G01*
G37*
X-238375000Y-395126000D03*
%TD*%
%TO.C,J-ADDER1-11*%
G36*
G01*
X-277275000Y-388096000D02*
X-277275000Y-386296000D01*
G75*
G02*
X-276375000Y-385396000I900000J0D01*
G01*
X-274575000Y-385396000D01*
G75*
G02*
X-273675000Y-386296000I0J-900000D01*
G01*
X-273675000Y-388096000D01*
G75*
G02*
X-274575000Y-388996000I-900000J0D01*
G01*
X-276375000Y-388996000D01*
G75*
G02*
X-277275000Y-388096000I0J900000D01*
G01*
G37*
G36*
G01*
X-280025000Y-383521000D02*
X-280025000Y-381471000D01*
G75*
G02*
X-279250000Y-380696000I775000J0D01*
G01*
X-277700000Y-380696000D01*
G75*
G02*
X-276925000Y-381471000I0J-775000D01*
G01*
X-276925000Y-383521000D01*
G75*
G02*
X-277700000Y-384296000I-775000J0D01*
G01*
X-279250000Y-384296000D01*
G75*
G02*
X-280025000Y-383521000I0J775000D01*
G01*
G37*
X-272475000Y-382496000D03*
%TD*%
%TO.C,J-ADDER1-10*%
G36*
G01*
X-260225000Y-375466000D02*
X-260225000Y-373666000D01*
G75*
G02*
X-259325000Y-372766000I900000J0D01*
G01*
X-257525000Y-372766000D01*
G75*
G02*
X-256625000Y-373666000I0J-900000D01*
G01*
X-256625000Y-375466000D01*
G75*
G02*
X-257525000Y-376366000I-900000J0D01*
G01*
X-259325000Y-376366000D01*
G75*
G02*
X-260225000Y-375466000I0J900000D01*
G01*
G37*
G36*
G01*
X-262975000Y-370891000D02*
X-262975000Y-368841000D01*
G75*
G02*
X-262200000Y-368066000I775000J0D01*
G01*
X-260650000Y-368066000D01*
G75*
G02*
X-259875000Y-368841000I0J-775000D01*
G01*
X-259875000Y-370891000D01*
G75*
G02*
X-260650000Y-371666000I-775000J0D01*
G01*
X-262200000Y-371666000D01*
G75*
G02*
X-262975000Y-370891000I0J775000D01*
G01*
G37*
X-255425000Y-369866000D03*
%TD*%
%TO.C,J-ADDER1-9*%
G36*
G01*
X-277275000Y-400726000D02*
X-277275000Y-398926000D01*
G75*
G02*
X-276375000Y-398026000I900000J0D01*
G01*
X-274575000Y-398026000D01*
G75*
G02*
X-273675000Y-398926000I0J-900000D01*
G01*
X-273675000Y-400726000D01*
G75*
G02*
X-274575000Y-401626000I-900000J0D01*
G01*
X-276375000Y-401626000D01*
G75*
G02*
X-277275000Y-400726000I0J900000D01*
G01*
G37*
G36*
G01*
X-280025000Y-396151000D02*
X-280025000Y-394101000D01*
G75*
G02*
X-279250000Y-393326000I775000J0D01*
G01*
X-277700000Y-393326000D01*
G75*
G02*
X-276925000Y-394101000I0J-775000D01*
G01*
X-276925000Y-396151000D01*
G75*
G02*
X-277700000Y-396926000I-775000J0D01*
G01*
X-279250000Y-396926000D01*
G75*
G02*
X-280025000Y-396151000I0J775000D01*
G01*
G37*
X-272475000Y-395126000D03*
%TD*%
%TO.C,J-ADDER1-8*%
G36*
G01*
X-260225000Y-388096000D02*
X-260225000Y-386296000D01*
G75*
G02*
X-259325000Y-385396000I900000J0D01*
G01*
X-257525000Y-385396000D01*
G75*
G02*
X-256625000Y-386296000I0J-900000D01*
G01*
X-256625000Y-388096000D01*
G75*
G02*
X-257525000Y-388996000I-900000J0D01*
G01*
X-259325000Y-388996000D01*
G75*
G02*
X-260225000Y-388096000I0J900000D01*
G01*
G37*
G36*
G01*
X-262975000Y-383521000D02*
X-262975000Y-381471000D01*
G75*
G02*
X-262200000Y-380696000I775000J0D01*
G01*
X-260650000Y-380696000D01*
G75*
G02*
X-259875000Y-381471000I0J-775000D01*
G01*
X-259875000Y-383521000D01*
G75*
G02*
X-260650000Y-384296000I-775000J0D01*
G01*
X-262200000Y-384296000D01*
G75*
G02*
X-262975000Y-383521000I0J775000D01*
G01*
G37*
X-255425000Y-382496000D03*
%TD*%
%TO.C,J-ADDER1-7*%
G36*
G01*
X-243175000Y-375466000D02*
X-243175000Y-373666000D01*
G75*
G02*
X-242275000Y-372766000I900000J0D01*
G01*
X-240475000Y-372766000D01*
G75*
G02*
X-239575000Y-373666000I0J-900000D01*
G01*
X-239575000Y-375466000D01*
G75*
G02*
X-240475000Y-376366000I-900000J0D01*
G01*
X-242275000Y-376366000D01*
G75*
G02*
X-243175000Y-375466000I0J900000D01*
G01*
G37*
G36*
G01*
X-245925000Y-370891000D02*
X-245925000Y-368841000D01*
G75*
G02*
X-245150000Y-368066000I775000J0D01*
G01*
X-243600000Y-368066000D01*
G75*
G02*
X-242825000Y-368841000I0J-775000D01*
G01*
X-242825000Y-370891000D01*
G75*
G02*
X-243600000Y-371666000I-775000J0D01*
G01*
X-245150000Y-371666000D01*
G75*
G02*
X-245925000Y-370891000I0J775000D01*
G01*
G37*
X-238375000Y-369866000D03*
%TD*%
%TO.C,J-ADDER1-6*%
G36*
G01*
X-260225000Y-400726000D02*
X-260225000Y-398926000D01*
G75*
G02*
X-259325000Y-398026000I900000J0D01*
G01*
X-257525000Y-398026000D01*
G75*
G02*
X-256625000Y-398926000I0J-900000D01*
G01*
X-256625000Y-400726000D01*
G75*
G02*
X-257525000Y-401626000I-900000J0D01*
G01*
X-259325000Y-401626000D01*
G75*
G02*
X-260225000Y-400726000I0J900000D01*
G01*
G37*
G36*
G01*
X-262975000Y-396151000D02*
X-262975000Y-394101000D01*
G75*
G02*
X-262200000Y-393326000I775000J0D01*
G01*
X-260650000Y-393326000D01*
G75*
G02*
X-259875000Y-394101000I0J-775000D01*
G01*
X-259875000Y-396151000D01*
G75*
G02*
X-260650000Y-396926000I-775000J0D01*
G01*
X-262200000Y-396926000D01*
G75*
G02*
X-262975000Y-396151000I0J775000D01*
G01*
G37*
X-255425000Y-395126000D03*
%TD*%
%TO.C,J-ADDER1-5*%
G36*
G01*
X-243175000Y-388096000D02*
X-243175000Y-386296000D01*
G75*
G02*
X-242275000Y-385396000I900000J0D01*
G01*
X-240475000Y-385396000D01*
G75*
G02*
X-239575000Y-386296000I0J-900000D01*
G01*
X-239575000Y-388096000D01*
G75*
G02*
X-240475000Y-388996000I-900000J0D01*
G01*
X-242275000Y-388996000D01*
G75*
G02*
X-243175000Y-388096000I0J900000D01*
G01*
G37*
G36*
G01*
X-245925000Y-383521000D02*
X-245925000Y-381471000D01*
G75*
G02*
X-245150000Y-380696000I775000J0D01*
G01*
X-243600000Y-380696000D01*
G75*
G02*
X-242825000Y-381471000I0J-775000D01*
G01*
X-242825000Y-383521000D01*
G75*
G02*
X-243600000Y-384296000I-775000J0D01*
G01*
X-245150000Y-384296000D01*
G75*
G02*
X-245925000Y-383521000I0J775000D01*
G01*
G37*
X-238375000Y-382496000D03*
%TD*%
%TO.C,J-ADDER1-4*%
G36*
G01*
X-226125000Y-375466000D02*
X-226125000Y-373666000D01*
G75*
G02*
X-225225000Y-372766000I900000J0D01*
G01*
X-223425000Y-372766000D01*
G75*
G02*
X-222525000Y-373666000I0J-900000D01*
G01*
X-222525000Y-375466000D01*
G75*
G02*
X-223425000Y-376366000I-900000J0D01*
G01*
X-225225000Y-376366000D01*
G75*
G02*
X-226125000Y-375466000I0J900000D01*
G01*
G37*
G36*
G01*
X-228875000Y-370891000D02*
X-228875000Y-368841000D01*
G75*
G02*
X-228100000Y-368066000I775000J0D01*
G01*
X-226550000Y-368066000D01*
G75*
G02*
X-225775000Y-368841000I0J-775000D01*
G01*
X-225775000Y-370891000D01*
G75*
G02*
X-226550000Y-371666000I-775000J0D01*
G01*
X-228100000Y-371666000D01*
G75*
G02*
X-228875000Y-370891000I0J775000D01*
G01*
G37*
X-221325000Y-369866000D03*
%TD*%
%TO.C,J-ADDER1-3*%
G36*
G01*
X-277275000Y-375466000D02*
X-277275000Y-373666000D01*
G75*
G02*
X-276375000Y-372766000I900000J0D01*
G01*
X-274575000Y-372766000D01*
G75*
G02*
X-273675000Y-373666000I0J-900000D01*
G01*
X-273675000Y-375466000D01*
G75*
G02*
X-274575000Y-376366000I-900000J0D01*
G01*
X-276375000Y-376366000D01*
G75*
G02*
X-277275000Y-375466000I0J900000D01*
G01*
G37*
G36*
G01*
X-280025000Y-370891000D02*
X-280025000Y-368841000D01*
G75*
G02*
X-279250000Y-368066000I775000J0D01*
G01*
X-277700000Y-368066000D01*
G75*
G02*
X-276925000Y-368841000I0J-775000D01*
G01*
X-276925000Y-370891000D01*
G75*
G02*
X-277700000Y-371666000I-775000J0D01*
G01*
X-279250000Y-371666000D01*
G75*
G02*
X-280025000Y-370891000I0J775000D01*
G01*
G37*
X-272475000Y-369866000D03*
%TD*%
D19*
%TO.C,D-CTRLGATE-6*%
X146930600Y-266944600D03*
X137098000Y-271161000D03*
D20*
X140098000Y-271161000D03*
X143098000Y-271161000D03*
%TD*%
D19*
%TO.C,D-CTRLGATE-5*%
X163980600Y-254314600D03*
X154148000Y-258531000D03*
D20*
X157148000Y-258531000D03*
X160148000Y-258531000D03*
%TD*%
D19*
%TO.C,D-CTRLGATE-4*%
X135210600Y-295674600D03*
X125378000Y-299891000D03*
D20*
X128378000Y-299891000D03*
X131378000Y-299891000D03*
%TD*%
D19*
%TO.C,D-CTRLGATE-3*%
X146210600Y-280064600D03*
X136378000Y-284281000D03*
D20*
X139378000Y-284281000D03*
X142378000Y-284281000D03*
%TD*%
D19*
%TO.C,D-CTRLGATE-1*%
X161820600Y-267434600D03*
X151988000Y-271651000D03*
D20*
X154988000Y-271651000D03*
X157988000Y-271651000D03*
%TD*%
D19*
%TO.C,C-CTRLGATE-3*%
X165063000Y-281486000D03*
X160063000Y-281486000D03*
%TD*%
%TO.C,C-CTRLGATE-2*%
X163783000Y-288036000D03*
X158783000Y-288036000D03*
%TD*%
%TO.C,C-CTRLGATE-1*%
X154733000Y-288036000D03*
X149733000Y-288036000D03*
%TD*%
%TO.C,C-ADDER1--A-8*%
X-70311000Y-388366000D03*
X-75311000Y-388366000D03*
%TD*%
%TO.C,C-ADDER1-11*%
X-73994000Y-375920000D03*
X-78994000Y-375920000D03*
%TD*%
%TO.C,C-ADDER1-10*%
X-83773000Y-391106000D03*
X-88773000Y-391106000D03*
%TD*%
%TO.C,C-ADDER1-9*%
X-88472000Y-376682000D03*
X-93472000Y-376682000D03*
%TD*%
D12*
%TO.C,V-ADDER1-9*%
X-216398230Y-275717116D03*
X-215210406Y-268980634D03*
X-218630608Y-263056672D03*
X-225058484Y-260717116D03*
X-231486360Y-263056672D03*
X-234906562Y-268980634D03*
X-233718738Y-275717116D03*
X-221638283Y-280114042D03*
D13*
X-225033084Y-270513916D03*
D14*
X-228478685Y-280114042D03*
%TD*%
D12*
%TO.C,V-ADDER1-8*%
X-245168230Y-304487116D03*
X-243980406Y-297750634D03*
X-247400608Y-291826672D03*
X-253828484Y-289487116D03*
X-260256360Y-291826672D03*
X-263676562Y-297750634D03*
X-262488738Y-304487116D03*
X-250408283Y-308884042D03*
D13*
X-253803084Y-299283916D03*
D14*
X-257248685Y-308884042D03*
%TD*%
D12*
%TO.C,V-ADDER1-7*%
X-198119230Y-334654116D03*
X-196931406Y-327917634D03*
X-200351608Y-321993672D03*
X-206779484Y-319654116D03*
X-213207360Y-321993672D03*
X-216627562Y-327917634D03*
X-215439738Y-334654116D03*
X-203359283Y-339051042D03*
D13*
X-206754084Y-329450916D03*
D14*
X-210199685Y-339051042D03*
%TD*%
D12*
%TO.C,V-ADDER1-6*%
X-245168230Y-275717116D03*
X-243980406Y-268980634D03*
X-247400608Y-263056672D03*
X-253828484Y-260717116D03*
X-260256360Y-263056672D03*
X-263676562Y-268980634D03*
X-262488738Y-275717116D03*
X-250408283Y-280114042D03*
D13*
X-253803084Y-270513916D03*
D14*
X-257248685Y-280114042D03*
%TD*%
D12*
%TO.C,V-ADDER1-5*%
X-198119230Y-305884116D03*
X-196931406Y-299147634D03*
X-200351608Y-293223672D03*
X-206779484Y-290884116D03*
X-213207360Y-293223672D03*
X-216627562Y-299147634D03*
X-215439738Y-305884116D03*
X-203359283Y-310281042D03*
D13*
X-206754084Y-300680916D03*
D14*
X-210199685Y-310281042D03*
%TD*%
D12*
%TO.C,V-ADDER1-4*%
X-226889230Y-334654116D03*
X-225701406Y-327917634D03*
X-229121608Y-321993672D03*
X-235549484Y-319654116D03*
X-241977360Y-321993672D03*
X-245397562Y-327917634D03*
X-244209738Y-334654116D03*
X-232129283Y-339051042D03*
D13*
X-235524084Y-329450916D03*
D14*
X-238969685Y-339051042D03*
%TD*%
D12*
%TO.C,V-ADDER1-3*%
X-194717546Y-263521200D03*
X-193529722Y-256784718D03*
X-196949924Y-250860756D03*
X-203377800Y-248521200D03*
X-209805676Y-250860756D03*
X-213225878Y-256784718D03*
X-212038054Y-263521200D03*
X-199957599Y-267918126D03*
D13*
X-203352400Y-258318000D03*
D14*
X-206798001Y-267918126D03*
%TD*%
D12*
%TO.C,V-ADDER1-2*%
X-226889230Y-305884116D03*
X-225701406Y-299147634D03*
X-229121608Y-293223672D03*
X-235549484Y-290884116D03*
X-241977360Y-293223672D03*
X-245397562Y-299147634D03*
X-244209738Y-305884116D03*
X-232129283Y-310281042D03*
D13*
X-235524084Y-300680916D03*
D14*
X-238969685Y-310281042D03*
%TD*%
D12*
%TO.C,V-ADDER1-1*%
X-178588546Y-283714200D03*
X-177400722Y-276977718D03*
X-180820924Y-271053756D03*
X-187248800Y-268714200D03*
X-193676676Y-271053756D03*
X-197096878Y-276977718D03*
X-195909054Y-283714200D03*
X-183828599Y-288111126D03*
D13*
X-187223400Y-278511000D03*
D14*
X-190669001Y-288111126D03*
%TD*%
D16*
%TO.C,R-ADDER1-34C1*%
X-106786000Y-319263000D03*
D17*
X-111866000Y-319263000D03*
%TD*%
D16*
%TO.C,R-ADDER1-34B1*%
X-133396000Y-345503000D03*
D17*
X-138476000Y-345503000D03*
%TD*%
D16*
%TO.C,R-ADDER1-46*%
X-263760000Y-307046000D03*
D17*
X-268840000Y-307046000D03*
%TD*%
D16*
%TO.C,R-ADDER1-45*%
X-96456000Y-299593000D03*
D17*
X-101536000Y-299593000D03*
%TD*%
D16*
%TO.C,R-ADDER1-44*%
X-123066000Y-332403000D03*
D17*
X-128146000Y-332403000D03*
%TD*%
D16*
%TO.C,R-ADDER1-43*%
X-133396000Y-338953000D03*
D17*
X-138476000Y-338953000D03*
%TD*%
D16*
%TO.C,R-ADDER1-42*%
X-106786000Y-312713000D03*
D17*
X-111866000Y-312713000D03*
%TD*%
D16*
%TO.C,R-ADDER1-41*%
X-263760000Y-293946000D03*
D17*
X-268840000Y-293946000D03*
%TD*%
D16*
%TO.C,R-ADDER1-40*%
X-96456000Y-306143000D03*
D17*
X-101536000Y-306143000D03*
%TD*%
D16*
%TO.C,R-ADDER1-38*%
X-84658000Y-295905000D03*
D17*
X-89738000Y-295905000D03*
%TD*%
D16*
%TO.C,R-ADDER1-37*%
X-157513000Y-282965000D03*
D17*
X-162593000Y-282965000D03*
%TD*%
D16*
%TO.C,R-ADDER1-36*%
X-96456000Y-312693000D03*
D17*
X-101536000Y-312693000D03*
%TD*%
D16*
%TO.C,R-ADDER1-35*%
X-123066000Y-338953000D03*
D17*
X-128146000Y-338953000D03*
%TD*%
D16*
%TO.C,R-ADDER1-34*%
X-112736000Y-332363000D03*
D17*
X-117816000Y-332363000D03*
%TD*%
D16*
%TO.C,R-ADDER1-33*%
X-91378000Y-309005000D03*
D17*
X-96458000Y-309005000D03*
%TD*%
D16*
%TO.C,R-ADDER1-32*%
X-214014000Y-301293000D03*
D17*
X-219094000Y-301293000D03*
%TD*%
D16*
%TO.C,R-ADDER1-31*%
X-106786000Y-299613000D03*
D17*
X-111866000Y-299613000D03*
%TD*%
D16*
%TO.C,R-ADDER1-30*%
X-84658000Y-289355000D03*
D17*
X-89738000Y-289355000D03*
%TD*%
D16*
%TO.C,R-ADDER1-29*%
X-94988000Y-295905000D03*
D17*
X-100068000Y-295905000D03*
%TD*%
D16*
%TO.C,R-ADDER1-28*%
X-139724000Y-384334000D03*
D17*
X-144804000Y-384334000D03*
%TD*%
D16*
%TO.C,R-ADDER1-27*%
X-92906000Y-293043000D03*
D17*
X-97986000Y-293043000D03*
%TD*%
D16*
%TO.C,R-ADDER1-26*%
X-106786000Y-306163000D03*
D17*
X-111866000Y-306163000D03*
%TD*%
D16*
%TO.C,R-ADDER1-25*%
X-117116000Y-319263000D03*
D17*
X-122196000Y-319263000D03*
%TD*%
D16*
%TO.C,R-ADDER1-24*%
X-143726000Y-345503000D03*
D17*
X-148806000Y-345503000D03*
%TD*%
D16*
%TO.C,R-ADDER1-23*%
X-123066000Y-325853000D03*
D17*
X-128146000Y-325853000D03*
%TD*%
D16*
%TO.C,R-ADDER1-22*%
X-133396000Y-332403000D03*
D17*
X-138476000Y-332403000D03*
%TD*%
D16*
%TO.C,R-ADDER1-21*%
X-143726000Y-338953000D03*
D17*
X-148806000Y-338953000D03*
%TD*%
D16*
%TO.C,R-ADDER1-20*%
X-117116000Y-312713000D03*
D17*
X-122196000Y-312713000D03*
%TD*%
D16*
%TO.C,R-ADDER1-19*%
X-88346000Y-273373000D03*
D17*
X-93426000Y-273373000D03*
%TD*%
D16*
%TO.C,R-ADDER1-18*%
X-117116000Y-306163000D03*
D17*
X-122196000Y-306163000D03*
%TD*%
D16*
%TO.C,R-ADDER1-17*%
X-112736000Y-325813000D03*
D17*
X-117816000Y-325813000D03*
%TD*%
D16*
%TO.C,R-ADDER1-16*%
X-103236000Y-293043000D03*
D17*
X-108316000Y-293043000D03*
%TD*%
D16*
%TO.C,R-ADDER1-15*%
X-92906000Y-286493000D03*
D17*
X-97986000Y-286493000D03*
%TD*%
D16*
%TO.C,R-ADDER1-14*%
X-88346000Y-279923000D03*
D17*
X-93426000Y-279923000D03*
%TD*%
D16*
%TO.C,R-ADDER1-13*%
X-150054000Y-384334000D03*
D17*
X-155134000Y-384334000D03*
%TD*%
D16*
%TO.C,R-ADDER1-12*%
X-204875000Y-301457000D03*
D17*
X-209955000Y-301457000D03*
%TD*%
D16*
%TO.C,R-ADDER1-11*%
X-130845000Y-346070000D03*
D17*
X-135925000Y-346070000D03*
%TD*%
D16*
%TO.C,R-ADDER1-10*%
X-94988000Y-289355000D03*
D17*
X-100068000Y-289355000D03*
%TD*%
D16*
%TO.C,R-ADDER1-9*%
X-133396000Y-325853000D03*
D17*
X-138476000Y-325853000D03*
%TD*%
D16*
%TO.C,R-ADDER1-8*%
X-130845000Y-339520000D03*
D17*
X-135925000Y-339520000D03*
%TD*%
D16*
%TO.C,R-ADDER1-7*%
X-215205000Y-301457000D03*
D17*
X-220285000Y-301457000D03*
%TD*%
D16*
%TO.C,R-ADDER1-6*%
X-143726000Y-332403000D03*
D17*
X-148806000Y-332403000D03*
%TD*%
D16*
%TO.C,R-ADDER1-5*%
X-91378000Y-302455000D03*
D17*
X-96458000Y-302455000D03*
%TD*%
D16*
%TO.C,R-ADDER1-4*%
X-263760000Y-300496000D03*
D17*
X-268840000Y-300496000D03*
%TD*%
D16*
%TO.C,R-ADDER1-3*%
X-143726000Y-325853000D03*
D17*
X-148806000Y-325853000D03*
%TD*%
D16*
%TO.C,R-ADDER1-2*%
X-117116000Y-299613000D03*
D17*
X-122196000Y-299613000D03*
%TD*%
D16*
%TO.C,R-ADDER1-1*%
X-103236000Y-286493000D03*
D17*
X-108316000Y-286493000D03*
%TD*%
%TO.C,J-ADDER1-2*%
G36*
G01*
X-253720000Y-357517000D02*
X-253720000Y-355717000D01*
G75*
G02*
X-252820000Y-354817000I900000J0D01*
G01*
X-251020000Y-354817000D01*
G75*
G02*
X-250120000Y-355717000I0J-900000D01*
G01*
X-250120000Y-357517000D01*
G75*
G02*
X-251020000Y-358417000I-900000J0D01*
G01*
X-252820000Y-358417000D01*
G75*
G02*
X-253720000Y-357517000I0J900000D01*
G01*
G37*
G36*
G01*
X-256470000Y-352942000D02*
X-256470000Y-350892000D01*
G75*
G02*
X-255695000Y-350117000I775000J0D01*
G01*
X-254145000Y-350117000D01*
G75*
G02*
X-253370000Y-350892000I0J-775000D01*
G01*
X-253370000Y-352942000D01*
G75*
G02*
X-254145000Y-353717000I-775000J0D01*
G01*
X-255695000Y-353717000D01*
G75*
G02*
X-256470000Y-352942000I0J775000D01*
G01*
G37*
D18*
X-248920000Y-351917000D03*
%TD*%
%TO.C,J-ADDER1-1*%
G36*
G01*
X-229694000Y-308488000D02*
X-229694000Y-306688000D01*
G75*
G02*
X-228794000Y-305788000I900000J0D01*
G01*
X-226994000Y-305788000D01*
G75*
G02*
X-226094000Y-306688000I0J-900000D01*
G01*
X-226094000Y-308488000D01*
G75*
G02*
X-226994000Y-309388000I-900000J0D01*
G01*
X-228794000Y-309388000D01*
G75*
G02*
X-229694000Y-308488000I0J900000D01*
G01*
G37*
G36*
G01*
X-232444000Y-303913000D02*
X-232444000Y-301863000D01*
G75*
G02*
X-231669000Y-301088000I775000J0D01*
G01*
X-230119000Y-301088000D01*
G75*
G02*
X-229344000Y-301863000I0J-775000D01*
G01*
X-229344000Y-303913000D01*
G75*
G02*
X-230119000Y-304688000I-775000J0D01*
G01*
X-231669000Y-304688000D01*
G75*
G02*
X-232444000Y-303913000I0J775000D01*
G01*
G37*
X-224894000Y-302888000D03*
%TD*%
D19*
%TO.C,D-ADDER1-16A1*%
X-141858400Y-311801600D03*
X-151691000Y-316018000D03*
D20*
X-148691000Y-316018000D03*
X-145691000Y-316018000D03*
%TD*%
D19*
%TO.C,D-ADDER1-28*%
X-168468400Y-338041600D03*
X-178301000Y-342258000D03*
D20*
X-175301000Y-342258000D03*
X-172301000Y-342258000D03*
%TD*%
D19*
%TO.C,D-ADDER1-27*%
X-153578400Y-324921600D03*
X-163411000Y-329138000D03*
D20*
X-160411000Y-329138000D03*
X-157411000Y-329138000D03*
%TD*%
D19*
%TO.C,D-ADDER1-26*%
X-126968400Y-298681600D03*
X-136801000Y-302898000D03*
D20*
X-133801000Y-302898000D03*
X-130801000Y-302898000D03*
%TD*%
D19*
%TO.C,D-ADDER1-25*%
X-113088400Y-285561600D03*
X-122921000Y-289778000D03*
D20*
X-119921000Y-289778000D03*
X-116921000Y-289778000D03*
%TD*%
D19*
%TO.C,D-ADDER1-24*%
X-98198400Y-272441600D03*
X-108031000Y-276658000D03*
D20*
X-105031000Y-276658000D03*
X-102031000Y-276658000D03*
%TD*%
D19*
%TO.C,D-ADDER1-23*%
X-245722400Y-271119600D03*
X-255555000Y-275336000D03*
D20*
X-252555000Y-275336000D03*
X-249555000Y-275336000D03*
%TD*%
D19*
%TO.C,D-ADDER1-22*%
X-140697400Y-343158600D03*
X-150530000Y-347375000D03*
D20*
X-147530000Y-347375000D03*
X-144530000Y-347375000D03*
%TD*%
D19*
%TO.C,D-ADDER1-21*%
X-126968400Y-311801600D03*
X-136801000Y-316018000D03*
D20*
X-133801000Y-316018000D03*
X-130801000Y-316018000D03*
%TD*%
D19*
%TO.C,D-ADDER1-20*%
X-153578400Y-338041600D03*
X-163411000Y-342258000D03*
D20*
X-160411000Y-342258000D03*
X-157411000Y-342258000D03*
%TD*%
D19*
%TO.C,D-ADDER1-19*%
X-204576400Y-379382600D03*
X-214409000Y-383599000D03*
D20*
X-211409000Y-383599000D03*
X-208409000Y-383599000D03*
%TD*%
D19*
%TO.C,D-ADDER1-18*%
X-127978400Y-285561600D03*
X-137811000Y-289778000D03*
D20*
X-134811000Y-289778000D03*
X-131811000Y-289778000D03*
%TD*%
D19*
%TO.C,D-ADDER1-17*%
X-168468400Y-324921600D03*
X-178301000Y-329138000D03*
D20*
X-175301000Y-329138000D03*
X-172301000Y-329138000D03*
%TD*%
D19*
%TO.C,D-ADDER1-16*%
X-141858400Y-298681600D03*
X-151691000Y-302898000D03*
D20*
X-148691000Y-302898000D03*
X-145691000Y-302898000D03*
%TD*%
D19*
%TO.C,D-ADDER1-15*%
X-147037400Y-330038600D03*
X-156870000Y-334255000D03*
D20*
X-153870000Y-334255000D03*
X-150870000Y-334255000D03*
%TD*%
D19*
%TO.C,D-ADDER1-14*%
X-156748400Y-311801600D03*
X-166581000Y-316018000D03*
D20*
X-163581000Y-316018000D03*
X-160581000Y-316018000D03*
%TD*%
D19*
%TO.C,D-ADDER1-13*%
X-170477400Y-343158600D03*
X-180310000Y-347375000D03*
D20*
X-177310000Y-347375000D03*
X-174310000Y-347375000D03*
%TD*%
D19*
%TO.C,D-ADDER1-12*%
X-189686400Y-379872600D03*
X-199519000Y-384089000D03*
D20*
X-196519000Y-384089000D03*
X-193519000Y-384089000D03*
%TD*%
D19*
%TO.C,D-ADDER1-11*%
X-156748400Y-298681600D03*
X-166581000Y-302898000D03*
D20*
X-163581000Y-302898000D03*
X-160581000Y-302898000D03*
%TD*%
D19*
%TO.C,D-ADDER1-10*%
X-142868400Y-285561600D03*
X-152701000Y-289778000D03*
D20*
X-149701000Y-289778000D03*
X-146701000Y-289778000D03*
%TD*%
D19*
%TO.C,D-ADDER1-9*%
X-127978400Y-272441600D03*
X-137811000Y-276658000D03*
D20*
X-134811000Y-276658000D03*
X-131811000Y-276658000D03*
%TD*%
D19*
%TO.C,D-ADDER1-8*%
X-220696400Y-312501600D03*
X-230529000Y-316718000D03*
D20*
X-227529000Y-316718000D03*
X-224529000Y-316718000D03*
%TD*%
D19*
%TO.C,D-ADDER1-7*%
X-161927400Y-330038600D03*
X-171760000Y-334255000D03*
D20*
X-168760000Y-334255000D03*
X-165760000Y-334255000D03*
%TD*%
D19*
%TO.C,D-ADDER1-6*%
X-113088400Y-272441600D03*
X-122921000Y-276658000D03*
D20*
X-119921000Y-276658000D03*
X-116921000Y-276658000D03*
%TD*%
D19*
%TO.C,D-ADDER1-5*%
X-142868400Y-272441600D03*
X-152701000Y-276658000D03*
D20*
X-149701000Y-276658000D03*
X-146701000Y-276658000D03*
%TD*%
D19*
%TO.C,D-ADDER1-4*%
X-208976400Y-287241600D03*
X-218809000Y-291458000D03*
D20*
X-215809000Y-291458000D03*
X-212809000Y-291458000D03*
%TD*%
D19*
%TO.C,D-ADDER1-3*%
X-174796400Y-379872600D03*
X-184629000Y-384089000D03*
D20*
X-181629000Y-384089000D03*
X-178629000Y-384089000D03*
%TD*%
D19*
%TO.C,D-ADDER1-2*%
X-211021400Y-344781600D03*
X-220854000Y-348998000D03*
D20*
X-217854000Y-348998000D03*
X-214854000Y-348998000D03*
%TD*%
D19*
%TO.C,D-ADDER1-1*%
X-155587400Y-343158600D03*
X-165420000Y-347375000D03*
D20*
X-162420000Y-347375000D03*
X-159420000Y-347375000D03*
%TD*%
D19*
%TO.C,C-ADDER1-8*%
X-103736000Y-325813000D03*
X-108736000Y-325813000D03*
%TD*%
%TO.C,C-ADDER1-7*%
X-87456000Y-306143000D03*
X-92456000Y-306143000D03*
%TD*%
%TO.C,C-ADDER1-6*%
X-135126000Y-292568000D03*
X-140126000Y-292568000D03*
%TD*%
%TO.C,C-ADDER1-5*%
X-124396000Y-345503000D03*
X-129396000Y-345503000D03*
%TD*%
%TO.C,C-ADDER1-4*%
X-97786000Y-319243000D03*
X-102786000Y-319243000D03*
%TD*%
%TO.C,C-ADDER1-3*%
X-158843000Y-289515000D03*
X-163843000Y-289515000D03*
%TD*%
%TO.C,C-ADDER1-2*%
X-75264000Y-304800000D03*
X-80264000Y-304800000D03*
%TD*%
%TO.C,C-ADDER1-1*%
X-87456000Y-299593000D03*
X-92456000Y-299593000D03*
%TD*%
M02*
